<svg width="10" height="10" viewBox="0 0 10 10" fill="none" xmlns="http://www.w3.org/2000/svg">
<rect opacity="0.2" x="0.833008" y="0.833374" width="8.33333" height="8.33333" rx="2" fill="#6DA0E1"/>
<path d="M7.49756 3.74939V3.75037L7.48486 3.84021C7.47666 3.87081 7.46463 3.90022 7.44775 3.9281L7.44678 3.9281L5.29248 7.32263L5.2915 7.32263C5.25655 7.37507 5.21448 7.41372 5.16455 7.43884C5.13858 7.45188 5.1117 7.46171 5.08447 7.46814L5.00049 7.47693C4.94255 7.4767 4.88771 7.46362 4.83545 7.43787C4.81056 7.42559 4.78733 7.41015 4.76611 7.39099L4.7085 7.32361L2.5542 3.93005L2.51416 3.83923C2.50532 3.80722 2.50125 3.77744 2.50146 3.75037C2.50146 3.68228 2.51992 3.62071 2.55713 3.56482L2.60107 3.51013C2.66653 3.44201 2.74566 3.40864 2.84326 3.40857L7.15576 3.40857C7.22926 3.40857 7.29268 3.42706 7.34717 3.46521L7.39893 3.51013C7.44928 3.56258 7.47971 3.62021 7.4917 3.68396L7.49756 3.74939ZM3.46729 4.09216L3.54053 4.2074L4.93701 6.3949L4.99951 6.49353L5.06299 6.3949L6.4585 4.2074L6.53271 4.09216L3.46729 4.09216Z" fill="#E4F1FF" stroke="#303E53" stroke-width="0.15"/>
</svg>
