<svg width="52" height="52" viewBox="0 0 52 52" fill="none" xmlns="http://www.w3.org/2000/svg">
<g filter="url(#filter0_ddd_104_235)">
<rect x="12" y="12" width="28" height="28" rx="14" fill="#121318"/>
<path d="M23.1555 20.2462H23.1565C23.191 20.2462 23.2268 20.2488 23.2639 20.254L23.3792 20.2784C23.4561 20.2991 23.5302 20.3297 23.5999 20.3722V20.3732L31.3235 25.2765V25.2775C31.4201 25.3418 31.4977 25.4174 31.5569 25.504L31.6106 25.5948C31.6589 25.691 31.6888 25.7908 31.7004 25.8947L31.7063 25.9991C31.7059 26.1063 31.6874 26.2097 31.6516 26.3087L31.6096 26.4064C31.5634 26.4999 31.4993 26.5828 31.4153 26.6544L31.3254 26.7208L23.6028 31.6251C23.5669 31.6466 23.5298 31.6657 23.4924 31.6818L23.3792 31.7218C23.3004 31.7436 23.2257 31.7536 23.1565 31.7531C22.9589 31.7531 22.783 31.6923 22.6272 31.5665L22.5618 31.5079C22.3924 31.3452 22.3079 31.1466 22.3079 30.9054V21.0948C22.3079 20.8832 22.3727 20.7042 22.5022 20.5538L22.5618 20.4904C22.712 20.3462 22.8814 20.2673 23.0725 20.2501L23.1555 20.2462ZM24.0042 29.3575L24.1575 29.2599L29.134 26.0841L29.2668 26.0001L29.134 25.9161L24.1575 22.7404L24.0042 22.6417V29.3575Z" fill="#AED2FF" stroke="#121318" stroke-width="0.2"/>
</g>
<defs>
<filter id="filter0_ddd_104_235" x="0" y="0" width="52" height="52" filterUnits="userSpaceOnUse" color-interpolation-filters="sRGB">
<feFlood flood-opacity="0" result="BackgroundImageFix"/>
<feColorMatrix in="SourceAlpha" type="matrix" values="0 0 0 0 0 0 0 0 0 0 0 0 0 0 0 0 0 0 127 0" result="hardAlpha"/>
<feOffset/>
<feGaussianBlur stdDeviation="1"/>
<feComposite in2="hardAlpha" operator="out"/>
<feColorMatrix type="matrix" values="0 0 0 0 0.682353 0 0 0 0 0.823529 0 0 0 0 1 0 0 0 0.5 0"/>
<feBlend mode="normal" in2="BackgroundImageFix" result="effect1_dropShadow_104_235"/>
<feColorMatrix in="SourceAlpha" type="matrix" values="0 0 0 0 0 0 0 0 0 0 0 0 0 0 0 0 0 0 127 0" result="hardAlpha"/>
<feOffset/>
<feGaussianBlur stdDeviation="3"/>
<feComposite in2="hardAlpha" operator="out"/>
<feColorMatrix type="matrix" values="0 0 0 0 0.682353 0 0 0 0 0.823529 0 0 0 0 1 0 0 0 0.4 0"/>
<feBlend mode="normal" in2="effect1_dropShadow_104_235" result="effect2_dropShadow_104_235"/>
<feColorMatrix in="SourceAlpha" type="matrix" values="0 0 0 0 0 0 0 0 0 0 0 0 0 0 0 0 0 0 127 0" result="hardAlpha"/>
<feOffset/>
<feGaussianBlur stdDeviation="6"/>
<feComposite in2="hardAlpha" operator="out"/>
<feColorMatrix type="matrix" values="0 0 0 0 0.682353 0 0 0 0 0.823529 0 0 0 0 1 0 0 0 0.35 0"/>
<feBlend mode="normal" in2="effect2_dropShadow_104_235" result="effect3_dropShadow_104_235"/>
<feBlend mode="normal" in="SourceGraphic" in2="effect3_dropShadow_104_235" result="shape"/>
</filter>
</defs>
</svg>
