<svg width="13" height="7" viewBox="0 0 13 7" fill="none" xmlns="http://www.w3.org/2000/svg">
<path d="M9.22 0.21934C9.36063 0.0788899 9.55125 0 9.75 0C9.94875 0 10.1394 0.0788899 10.28 0.21934L12.78 2.71934C12.9205 2.85997 12.9993 3.05059 12.9993 3.24934C12.9993 3.44809 12.9205 3.63871 12.78 3.77934L10.28 6.27934C10.2113 6.35303 10.1285 6.41213 10.0365 6.45312C9.94454 6.49411 9.84523 6.51615 9.74452 6.51793C9.64382 6.51971 9.54379 6.50118 9.4504 6.46346C9.35701 6.42574 9.27218 6.3696 9.20096 6.29838C9.12974 6.22716 9.0736 6.14233 9.03588 6.04894C8.99816 5.95555 8.97963 5.85552 8.98141 5.75482C8.98318 5.65411 9.00523 5.5548 9.04622 5.4628C9.08721 5.3708 9.14631 5.288 9.22 5.21934L10.44 3.99934H0.75C0.551088 3.99934 0.360323 3.92032 0.21967 3.77967C0.079018 3.63902 0 3.44825 0 3.24934C0 3.05043 0.079018 2.85966 0.21967 2.71901C0.360323 2.57836 0.551088 2.49934 0.75 2.49934H10.44L9.22 1.27934C9.07955 1.13871 9.00066 0.948091 9.00066 0.74934C9.00066 0.550589 9.07955 0.359966 9.22 0.21934Z" fill="#E4F1FF"/>
</svg>
