<svg width="20" height="20" viewBox="0 0 20 20" fill="none" xmlns="http://www.w3.org/2000/svg">
<path d="M10.8635 9.03858L15.6706 4.23146M16.632 5.19288L14.7092 3.27004L17.1127 1.8279L18.0741 2.78932L16.632 5.19288ZM2.23468 7.0917C1.7731 6.63052 1.45555 6.04508 1.3207 5.40668C1.18584 4.76827 1.23951 4.10443 1.47516 3.49597L2.8423 4.86311H4.76515V2.94027L3.39801 1.57312C4.00651 1.33694 4.67056 1.28283 5.30927 1.41739C5.94797 1.55194 6.53376 1.86936 6.99526 2.33096C7.45675 2.79255 7.77404 3.37841 7.90845 4.01715C8.04287 4.65588 7.98861 5.31993 7.75229 5.92837L13.9727 12.1497C14.5812 11.9134 15.2452 11.8592 15.8839 11.9936C16.5227 12.128 17.1085 12.4453 17.5701 12.9068C18.0317 13.3683 18.3491 13.9541 18.4837 14.5928C18.6182 15.2315 18.5641 15.8955 18.328 16.504L16.9618 15.1369H15.0389V17.0597L16.4061 18.4269C15.7977 18.6631 15.1338 18.7173 14.4952 18.5829C13.8566 18.4485 13.2709 18.1313 12.8094 17.6699C12.3478 17.2086 12.0304 16.623 11.8957 15.9845C11.761 15.3459 11.8149 14.682 12.0508 14.0736L5.82849 7.85122C5.22028 8.08646 4.55683 8.13991 3.91881 8.00507C3.28079 7.87023 2.6957 7.55291 2.23468 7.0917Z" stroke="#6DA0E1" stroke-linecap="round" stroke-linejoin="round"/>
<path d="M10.0973 12.4036L4.70949 17.7914C4.58893 17.9122 4.44574 18.008 4.28811 18.0734C4.13048 18.1387 3.9615 18.1724 3.79085 18.1724C3.6202 18.1724 3.45122 18.1387 3.29359 18.0734C3.13595 18.008 2.99276 17.9122 2.87221 17.7914L2.11076 17.0299C1.98998 16.9094 1.89415 16.7662 1.82877 16.6086C1.76339 16.4509 1.72974 16.2819 1.72974 16.1113C1.72974 15.9406 1.76339 15.7717 1.82877 15.614C1.89415 15.4564 1.98998 15.3132 2.11076 15.1926L7.49858 9.80483" stroke="#6DA0E1" stroke-linecap="round" stroke-linejoin="round"/>
</svg>
