<svg width="2" height="9" viewBox="0 0 2 9" fill="none" xmlns="http://www.w3.org/2000/svg">
<path d="M1.00586 1.76953C0.845703 1.76953 0.712891 1.75781 0.607422 1.73438C0.505859 1.71094 0.421875 1.66992 0.355469 1.61133C0.292969 1.55273 0.248047 1.47266 0.220703 1.37109C0.197266 1.26953 0.185547 1.13867 0.185547 0.978516C0.185547 0.818359 0.197266 0.6875 0.220703 0.585938C0.248047 0.480469 0.292969 0.396484 0.355469 0.333984C0.421875 0.271484 0.505859 0.228516 0.607422 0.205078C0.712891 0.181641 0.845703 0.169922 1.00586 0.169922C1.16602 0.169922 1.29688 0.181641 1.39844 0.205078C1.50391 0.228516 1.58789 0.271484 1.65039 0.333984C1.71289 0.396484 1.75586 0.480469 1.7793 0.585938C1.80273 0.6875 1.81445 0.818359 1.81445 0.978516C1.81445 1.13867 1.80273 1.26953 1.7793 1.37109C1.75586 1.47266 1.71289 1.55273 1.65039 1.61133C1.58789 1.66992 1.50391 1.71094 1.39844 1.73438C1.29688 1.75781 1.16602 1.76953 1.00586 1.76953ZM0.308594 2.81836H1.70312V9H0.308594V2.81836Z" fill="#AED2FF"/>
</svg>
