<svg width="22" height="22" viewBox="0 0 22 22" fill="none" xmlns="http://www.w3.org/2000/svg">
<path d="M6.33366 6.66666H15.667M11.0003 6.66666V10.6667M11.0003 17.3333V13.3333M8.33366 9.99999C7.3169 10.1981 6.52226 10.5039 6.07297 10.87C5.62368 11.2361 5.54486 11.642 5.84872 12.0247C6.15259 12.4074 6.82216 12.7457 7.7536 12.9869C8.68504 13.2281 9.82628 13.3588 11.0003 13.3588C12.1744 13.3588 13.3156 13.2281 14.2471 12.9869C15.1785 12.7457 15.8481 12.4074 16.1519 12.0247C16.4558 11.642 16.377 11.2361 15.9277 10.87C15.4784 10.5039 14.6838 10.1981 13.667 9.99999" stroke="#AED2FF" stroke-width="1.6" stroke-linecap="round" stroke-linejoin="round"/>
<circle cx="11" cy="11" r="10.3" stroke="#AED2FF" stroke-width="1.4"/>
</svg>
