<svg width="22" height="22" viewBox="0 0 22 22" fill="none" xmlns="http://www.w3.org/2000/svg">
<circle cx="11" cy="11" r="10.3" stroke="#AED2FF" stroke-width="1.4"/>
<path d="M16.774 8.81332L11.5433 17.1427C11.4794 17.2435 11.3908 17.3265 11.2861 17.3839C11.1813 17.4413 11.0637 17.4712 10.9442 17.4708C10.8248 17.4704 10.7074 17.4397 10.603 17.3816C10.4986 17.3236 10.4107 17.24 10.3473 17.1387L5.21868 8.80932C5.07473 8.57616 4.99898 8.30733 5.00001 8.03332C5.00615 7.62853 5.17283 7.24274 5.46337 6.96082C5.75392 6.6789 6.14455 6.52393 6.54934 6.52999H15.4573C16.3087 6.52932 17 7.19999 17 8.02932C17 8.30465 16.9227 8.57665 16.774 8.81332ZM6.47868 8.53332L10.294 14.4173V7.94132H6.87734C6.48268 7.94132 6.30601 8.20265 6.47868 8.53465M11.7053 14.4187L15.522 8.53332C15.6987 8.20199 15.518 7.93999 15.1227 7.93999H11.7067L11.7053 14.4187Z" fill="#AED2FF"/>
</svg>
