<svg width="37" height="38" viewBox="0 0 37 38" fill="none" xmlns="http://www.w3.org/2000/svg">
<g filter="url(#filter0_dd_208_760)">
<path d="M15.9549 27.6751H20.9121M13.9976 31.3929H22.8691C24.5259 31.3929 25.8691 30.0498 25.8691 28.3929V9.60706C25.8691 7.9502 24.5259 6.60706 22.8691 6.60706H13.9976C12.3407 6.60706 10.9976 7.9502 10.9976 9.60705V28.3929C10.9976 30.0498 12.3407 31.3929 13.9976 31.3929Z" stroke="#AED2FF" stroke-width="1.2" stroke-linecap="round"/>
<path d="M30 12.3904L28.3476 14.0428L30 15.6952L28.3476 17.3476L30 19L28.3476 20.6524L30 22.3048L28.3476 23.9572L30 25.6096M6.8667 12.3904L8.51909 14.0428L6.8667 15.6952L8.51909 17.3476L6.8667 19L8.51909 20.6524L6.8667 22.3048L8.51909 23.9572L6.8667 25.6096" stroke="#AED2FF" stroke-width="0.8" stroke-linecap="round" stroke-linejoin="round"/>
</g>
<defs>
<filter id="filter0_dd_208_760" x="0.466797" y="0.00704956" width="35.9331" height="37.9859" filterUnits="userSpaceOnUse" color-interpolation-filters="sRGB">
<feFlood flood-opacity="0" result="BackgroundImageFix"/>
<feColorMatrix in="SourceAlpha" type="matrix" values="0 0 0 0 0 0 0 0 0 0 0 0 0 0 0 0 0 0 127 0" result="hardAlpha"/>
<feOffset/>
<feGaussianBlur stdDeviation="1"/>
<feComposite in2="hardAlpha" operator="out"/>
<feColorMatrix type="matrix" values="0 0 0 0 0.427451 0 0 0 0 0.627451 0 0 0 0 0.882353 0 0 0 0.6 0"/>
<feBlend mode="normal" in2="BackgroundImageFix" result="effect1_dropShadow_208_760"/>
<feColorMatrix in="SourceAlpha" type="matrix" values="0 0 0 0 0 0 0 0 0 0 0 0 0 0 0 0 0 0 127 0" result="hardAlpha"/>
<feOffset/>
<feGaussianBlur stdDeviation="3"/>
<feComposite in2="hardAlpha" operator="out"/>
<feColorMatrix type="matrix" values="0 0 0 0 0.427451 0 0 0 0 0.627451 0 0 0 0 0.882353 0 0 0 0.4 0"/>
<feBlend mode="normal" in2="effect1_dropShadow_208_760" result="effect2_dropShadow_208_760"/>
<feBlend mode="normal" in="SourceGraphic" in2="effect2_dropShadow_208_760" result="shape"/>
</filter>
</defs>
</svg>
