<svg width="38" height="38" viewBox="0 0 38 38" fill="none" xmlns="http://www.w3.org/2000/svg">
<g filter="url(#filter0_dd_213_412)">
<path d="M23.125 28C20.7393 29.2238 17.9949 29.5553 15.3864 28.9347C12.7779 28.3141 10.4768 26.7823 8.89781 24.6152C7.31881 22.4482 6.56573 19.7884 6.77427 17.1152C6.98282 14.442 8.13927 11.9312 10.0352 10.0352C11.9312 8.13927 14.442 6.98281 17.1152 6.77427C19.7884 6.56572 22.4482 7.31881 24.6152 8.89781C26.7823 10.4768 28.3141 12.7779 28.9347 15.3864C29.5553 17.9949 29.2238 20.7393 28 23.125L30.5 30.5L23.125 28Z" stroke="#AED2FF" stroke-width="1.2" stroke-linecap="round" stroke-linejoin="round"/>
<path d="M10.7632 18C10.7632 21.9969 14.0031 25.2368 18 25.2368C21.9969 25.2368 25.2369 21.9969 25.2369 18C25.2369 14.0031 21.9969 10.7632 18 10.7632C14.0031 10.7632 10.7632 14.0031 10.7632 18Z" stroke="#AED2FF" stroke-linecap="round" stroke-linejoin="round"/>
<path d="M18.7238 10.7993C18.7238 10.7993 20.8949 13.6579 20.8949 18C20.8949 22.3421 18.7238 25.2007 18.7238 25.2007M17.2765 25.2007C17.2765 25.2007 15.1054 22.3421 15.1054 18C15.1054 13.6579 17.2765 10.7993 17.2765 10.7993M11.2192 20.5329H24.7811M11.2192 15.4671H24.7811" stroke="#AED2FF" stroke-linecap="round" stroke-linejoin="round"/>
</g>
<defs>
<filter id="filter0_dd_213_412" x="0.140137" y="0.140167" width="36.96" height="36.9598" filterUnits="userSpaceOnUse" color-interpolation-filters="sRGB">
<feFlood flood-opacity="0" result="BackgroundImageFix"/>
<feColorMatrix in="SourceAlpha" type="matrix" values="0 0 0 0 0 0 0 0 0 0 0 0 0 0 0 0 0 0 127 0" result="hardAlpha"/>
<feOffset/>
<feGaussianBlur stdDeviation="1"/>
<feComposite in2="hardAlpha" operator="out"/>
<feColorMatrix type="matrix" values="0 0 0 0 0.427451 0 0 0 0 0.627451 0 0 0 0 0.882353 0 0 0 0.6 0"/>
<feBlend mode="normal" in2="BackgroundImageFix" result="effect1_dropShadow_213_412"/>
<feColorMatrix in="SourceAlpha" type="matrix" values="0 0 0 0 0 0 0 0 0 0 0 0 0 0 0 0 0 0 127 0" result="hardAlpha"/>
<feOffset/>
<feGaussianBlur stdDeviation="3"/>
<feComposite in2="hardAlpha" operator="out"/>
<feColorMatrix type="matrix" values="0 0 0 0 0.427451 0 0 0 0 0.627451 0 0 0 0 0.882353 0 0 0 0.4 0"/>
<feBlend mode="normal" in2="effect1_dropShadow_213_412" result="effect2_dropShadow_213_412"/>
<feBlend mode="normal" in="SourceGraphic" in2="effect2_dropShadow_213_412" result="shape"/>
</filter>
</defs>
</svg>
