<svg width="37" height="32" viewBox="0 0 37 32" fill="none" xmlns="http://www.w3.org/2000/svg">
<g filter="url(#filter0_dd_208_852)">
<path d="M22.0983 24.3558C20.4416 25.2056 18.5359 25.4358 16.7245 25.0048C14.9132 24.5739 13.3153 23.5102 12.2188 22.0054C11.1223 20.5005 10.5994 18.6536 10.7442 16.7973C10.889 14.941 11.6921 13.1975 13.0086 11.8809C14.3252 10.5643 16.0687 9.76126 17.925 9.61645C19.7813 9.47163 21.6283 9.99458 23.1331 11.0911C24.6379 12.1875 25.7017 13.7854 26.1326 15.5968C26.5635 17.4081 26.3333 19.3139 25.4835 20.9705C24.4193 23.0451 22.0983 24.3558 22.0983 24.3558Z" stroke="#AED2FF" stroke-linecap="round" stroke-linejoin="round"/>
<path d="M8.01471 14.5927C8.49633 12.7394 9.46473 11.0354 10.8348 9.6653C12.6575 7.84257 15.0713 6.73079 17.6413 6.5303C20.2112 6.32982 22.7682 7.05381 24.8515 8.57181C26.891 10.0579 28.3453 12.2092 28.9653 14.6518" stroke="#AED2FF" stroke-linecap="round" stroke-linejoin="round"/>
<path d="M16.2592 17.6879C16.2592 18.2139 15.8328 18.6403 15.3069 18.6403C14.7809 18.6403 14.3545 18.2139 14.3545 17.6879C14.3545 17.1619 14.7809 16.7355 15.3069 16.7355C15.8328 16.7355 16.2592 17.1619 16.2592 17.6879Z" fill="#AED2FF"/>
<path d="M19.5926 17.6879C19.5926 18.2139 19.1662 18.6403 18.6402 18.6403C18.1143 18.6403 17.6879 18.2139 17.6879 17.6879C17.6879 17.1619 18.1143 16.7355 18.6402 16.7355C19.1662 16.7355 19.5926 17.1619 19.5926 17.6879Z" fill="#AED2FF"/>
<path d="M22.926 17.6879C22.926 18.2139 22.4996 18.6403 21.9736 18.6403C21.4476 18.6403 21.0212 18.2139 21.0212 17.6879C21.0212 17.1619 21.4476 16.7355 21.9736 16.7355C22.4996 16.7355 22.926 17.1619 22.926 17.6879Z" fill="#AED2FF"/>
<path d="M7.66699 14.8546C8.31116 14.8548 8.83301 15.3774 8.83301 16.0216V19.8312C8.8328 20.4752 8.31103 20.997 7.66699 20.9972C7.0228 20.9972 6.50021 20.4753 6.5 19.8312V16.0216L6.50586 15.9025C6.56539 15.3139 7.06278 14.8546 7.66699 14.8546ZM29.333 14.8546C29.9773 14.8546 30.5 15.3773 30.5 16.0216V19.8312C30.4998 20.4753 29.9772 20.9972 29.333 20.9972C28.689 20.997 28.1672 20.4752 28.167 19.8312V16.0216C28.167 15.3774 28.6888 14.8548 29.333 14.8546Z" stroke="#AED2FF"/>
</g>
<defs>
<filter id="filter0_dd_208_852" x="0" y="-0.00247192" width="37" height="31.7195" filterUnits="userSpaceOnUse" color-interpolation-filters="sRGB">
<feFlood flood-opacity="0" result="BackgroundImageFix"/>
<feColorMatrix in="SourceAlpha" type="matrix" values="0 0 0 0 0 0 0 0 0 0 0 0 0 0 0 0 0 0 127 0" result="hardAlpha"/>
<feOffset/>
<feGaussianBlur stdDeviation="1"/>
<feComposite in2="hardAlpha" operator="out"/>
<feColorMatrix type="matrix" values="0 0 0 0 0.427451 0 0 0 0 0.627451 0 0 0 0 0.882353 0 0 0 0.6 0"/>
<feBlend mode="normal" in2="BackgroundImageFix" result="effect1_dropShadow_208_852"/>
<feColorMatrix in="SourceAlpha" type="matrix" values="0 0 0 0 0 0 0 0 0 0 0 0 0 0 0 0 0 0 127 0" result="hardAlpha"/>
<feOffset/>
<feGaussianBlur stdDeviation="3"/>
<feComposite in2="hardAlpha" operator="out"/>
<feColorMatrix type="matrix" values="0 0 0 0 0.427451 0 0 0 0 0.627451 0 0 0 0 0.882353 0 0 0 0.4 0"/>
<feBlend mode="normal" in2="effect1_dropShadow_208_852" result="effect2_dropShadow_208_852"/>
<feBlend mode="normal" in="SourceGraphic" in2="effect2_dropShadow_208_852" result="shape"/>
</filter>
</defs>
</svg>
