<svg width="12" height="12" viewBox="0 0 12 12" fill="none" xmlns="http://www.w3.org/2000/svg">
<path d="M9.01221 4.5C9.01221 4.53425 9.00745 4.57175 8.99658 4.6123C8.98625 4.65077 8.97099 4.68772 8.94971 4.72266L8.94873 4.72266L6.36182 8.79687C6.34041 8.82883 6.31659 8.85634 6.29053 8.87988L6.20361 8.93945C6.13919 8.97179 6.07181 8.98755 6.00049 8.9873C5.9645 8.98716 5.92913 8.98364 5.89502 8.97559L5.79541 8.93945C5.73361 8.90896 5.68138 8.86197 5.63818 8.79687L3.05127 4.72363C3.04056 4.70574 3.03097 4.68756 3.02295 4.66895L3.00342 4.61133C2.99788 4.59136 2.99332 4.57224 2.99072 4.55371L2.98779 4.50098V4.5C2.98779 4.38686 3.02766 4.2888 3.11084 4.20215C3.19238 4.11724 3.29126 4.0752 3.4126 4.0752L8.5874 4.0752C8.70915 4.0752 8.80863 4.11724 8.89014 4.20215C8.9524 4.2671 8.99047 4.33859 9.00537 4.41797L9.01221 4.5ZM4.18799 4.9248L4.26123 5.04004L5.93701 7.66504L5.99951 7.76465L6.06299 7.66504L7.73779 5.04004L7.81201 4.9248L4.18799 4.9248Z" fill="#E4F1FF" stroke="#303E53" stroke-width="0.15"/>
</svg>
