<svg width="20" height="20" viewBox="0 0 20 20" fill="none" xmlns="http://www.w3.org/2000/svg">
<path fill-rule="evenodd" clip-rule="evenodd" d="M9.99992 6.33333C9.02746 6.33333 8.09483 6.71964 7.40719 7.40727C6.71956 8.09491 6.33325 9.02754 6.33325 10C6.33325 10.9725 6.71956 11.9051 7.40719 12.5927C8.09483 13.2804 9.02746 13.6667 9.99992 13.6667C10.9724 13.6667 11.905 13.2804 12.5926 12.5927C13.2803 11.9051 13.6666 10.9725 13.6666 10C13.6666 9.02754 13.2803 8.09491 12.5926 7.40727C11.905 6.71964 10.9724 6.33333 9.99992 6.33333ZM7.79992 10C7.79992 9.41652 8.0317 8.85694 8.44428 8.44436C8.85686 8.03178 9.41644 7.8 9.99992 7.8C10.5834 7.8 11.143 8.03178 11.5556 8.44436C11.9681 8.85694 12.1999 9.41652 12.1999 10C12.1999 10.5835 11.9681 11.1431 11.5556 11.5556C11.143 11.9682 10.5834 12.2 9.99992 12.2C9.41644 12.2 8.85686 11.9682 8.44428 11.5556C8.0317 11.1431 7.79992 10.5835 7.79992 10Z" fill="#6DA0E1"/>
<path fill-rule="evenodd" clip-rule="evenodd" d="M9.97704 0.145832C9.56912 0.145832 9.22904 0.145832 8.95037 0.164165C8.66548 0.175639 8.3845 0.2345 8.11896 0.338332C7.81302 0.464914 7.53501 0.650524 7.30082 0.884562C7.06663 1.1186 6.88083 1.39648 6.75404 1.70233C6.62112 2.02317 6.58537 2.36233 6.57071 2.73083C6.56907 2.86557 6.53332 2.99769 6.4668 3.11487C6.40027 3.23204 6.30514 3.33046 6.19029 3.40092C6.07188 3.46538 5.93906 3.49877 5.80424 3.49797C5.66942 3.49716 5.53701 3.4622 5.41937 3.39633C5.09304 3.224 4.78137 3.08558 4.43671 3.03975C4.10849 2.99658 3.77498 3.01847 3.45523 3.10419C3.13547 3.18991 2.83573 3.33777 2.57312 3.53933C2.35073 3.7176 2.15959 3.93167 2.00754 4.17275C1.85171 4.40558 1.68121 4.69983 1.47771 5.05275L1.45479 5.09308C1.25037 5.446 1.08079 5.74025 0.957956 5.99142C0.829623 6.25358 0.72879 6.51208 0.692123 6.79808C0.604673 7.46082 0.784046 8.13116 1.19079 8.66166C1.40254 8.93758 1.67846 9.13833 1.99012 9.3345C2.1062 9.40333 2.20292 9.50048 2.27122 9.61688C2.33951 9.73327 2.37716 9.86509 2.38062 10C2.37716 10.1349 2.33951 10.2667 2.27122 10.3831C2.20292 10.4995 2.1062 10.5967 1.99012 10.6655C1.67846 10.8617 1.40346 11.0624 1.19079 11.3383C0.98923 11.6009 0.841369 11.9007 0.755651 12.2204C0.669932 12.5402 0.648034 12.8737 0.691206 13.2019C0.72879 13.4879 0.828706 13.7464 0.95704 14.0086C1.08079 14.2597 1.25037 14.554 1.45479 14.9069L1.47771 14.9472C1.68121 15.3002 1.85171 15.5944 2.00754 15.8272C2.16979 16.0683 2.34396 16.2856 2.57312 16.4597C2.83567 16.6615 3.13537 16.8095 3.45513 16.8954C3.77489 16.9812 4.10843 17.0033 4.43671 16.9602C4.78137 16.9144 5.09304 16.7769 5.41937 16.6037C5.5369 16.538 5.66914 16.5031 5.80378 16.5023C5.93842 16.5015 6.07108 16.5348 6.18937 16.5991C6.30516 16.6687 6.40113 16.7668 6.46806 16.8842C6.535 17.0015 6.57066 17.1341 6.57162 17.2692C6.58537 17.6377 6.62112 17.9768 6.75496 18.2977C6.88154 18.6036 7.06715 18.8816 7.30119 19.1158C7.53522 19.35 7.8131 19.5358 8.11896 19.6626C8.38479 19.7726 8.65979 19.8157 8.95037 19.8349C9.22904 19.8542 9.56912 19.8542 9.97704 19.8542H10.0229C10.4308 19.8542 10.7709 19.8542 11.0495 19.8358C11.341 19.8157 11.6151 19.7726 11.881 19.6617C12.1869 19.5351 12.4649 19.3495 12.6991 19.1154C12.9333 18.8814 13.1191 18.6035 13.2459 18.2977C13.3788 17.9768 13.4145 17.6377 13.4292 17.2692C13.4307 17.1343 13.4664 17.002 13.5329 16.8846C13.5994 16.7673 13.6946 16.6687 13.8096 16.5982C13.9281 16.5338 14.061 16.5006 14.1958 16.5016C14.3306 16.5025 14.463 16.5377 14.5805 16.6037C14.9069 16.776 15.2185 16.9144 15.5632 16.9593C16.2259 17.0468 16.8963 16.8674 17.4268 16.4607C17.656 16.2847 17.8301 16.0683 17.9924 15.8272C18.1482 15.5944 18.3187 15.3002 18.5222 14.9472L18.5451 14.9069C18.7495 14.554 18.9191 14.2597 19.042 14.0086C19.1703 13.7464 19.2711 13.487 19.3078 13.2019C19.3952 12.5392 19.2159 11.8688 18.8091 11.3383C18.5974 11.0624 18.3215 10.8617 18.0098 10.6655C17.8937 10.5967 17.797 10.4995 17.7287 10.3831C17.6604 10.2667 17.6228 10.1349 17.6193 10C17.6193 9.74516 17.7586 9.49217 18.0098 9.3345C18.3215 9.13833 18.5965 8.93758 18.8091 8.66166C19.0107 8.39905 19.1585 8.09932 19.2443 7.77956C19.33 7.45981 19.3519 7.1263 19.3087 6.79808C19.2655 6.5163 19.1757 6.24368 19.0429 5.99142C18.8863 5.68688 18.7203 5.38729 18.5451 5.09308L18.5222 5.05275C18.3548 4.75399 18.1781 4.46051 17.9924 4.17275C17.8402 3.932 17.6491 3.71824 17.4268 3.54025C17.1642 3.33853 16.8645 3.1905 16.5448 3.10463C16.225 3.01875 15.8915 2.9967 15.5632 3.03975C15.2185 3.08558 14.9069 3.22308 14.5805 3.39633C14.463 3.46203 14.3308 3.49691 14.1961 3.49771C14.0615 3.49851 13.9288 3.46521 13.8105 3.40092C13.6953 3.33068 13.5999 3.23236 13.533 3.11517C13.4662 2.99798 13.4301 2.86574 13.4283 2.73083C13.4145 2.36233 13.3788 2.02317 13.245 1.70233C13.1184 1.39639 12.9328 1.11839 12.6987 0.884195C12.4647 0.65 12.1868 0.464203 11.881 0.337415C11.6151 0.227415 11.3401 0.184332 11.0495 0.165082C10.7709 0.145832 10.4308 0.145832 10.0229 0.145832H9.97704ZM8.64512 1.60792C8.71571 1.57858 8.82296 1.552 9.04387 1.53642C9.27029 1.52083 9.56362 1.52083 9.99996 1.52083C10.4363 1.52083 10.7296 1.52083 10.956 1.53642C11.177 1.552 11.2842 1.57858 11.3548 1.60792C11.6362 1.72433 11.859 1.94708 11.9754 2.2285C12.012 2.3165 12.0423 2.45492 12.0542 2.78217C12.0817 3.50817 12.4566 4.20758 13.1221 4.59167C13.7876 4.97575 14.5805 4.951 15.2231 4.61183C15.5128 4.45875 15.6475 4.41567 15.7429 4.40375C16.0441 4.36395 16.3487 4.44539 16.5899 4.63017C16.6504 4.67692 16.7274 4.75667 16.8511 4.94C16.9785 5.12883 17.1252 5.38275 17.3434 5.76042C17.5615 6.13808 17.7073 6.39291 17.8072 6.59642C17.9053 6.79533 17.9355 6.90167 17.9447 6.97775C17.9845 7.27893 17.9031 7.58359 17.7183 7.82475C17.6596 7.90083 17.5551 7.99616 17.2783 8.17033C16.6623 8.55717 16.2443 9.23183 16.2443 10C16.2443 10.7682 16.6623 11.4428 17.2783 11.8297C17.5551 12.0038 17.6596 12.0992 17.7183 12.1752C17.9035 12.4163 17.9841 12.7207 17.9447 13.0222C17.9355 13.0983 17.9044 13.2056 17.8072 13.4036C17.7073 13.608 17.5615 13.8619 17.3434 14.2396C17.1252 14.6172 16.9776 14.8712 16.8511 15.06C16.7274 15.2433 16.6504 15.3231 16.5899 15.3698C16.3487 15.5546 16.0441 15.636 15.7429 15.5962C15.6475 15.5843 15.5137 15.5412 15.2231 15.3882C14.5815 15.049 13.7876 15.0233 13.1221 15.4074C12.4566 15.7915 12.0817 16.4918 12.0542 17.2178C12.0423 17.5451 12.012 17.6835 11.9754 17.7715C11.9178 17.9106 11.8333 18.0371 11.7269 18.1436C11.6204 18.25 11.4939 18.3345 11.3548 18.3921C11.2842 18.4214 11.177 18.448 10.956 18.4636C10.7296 18.4792 10.4363 18.4792 9.99996 18.4792C9.56362 18.4792 9.27029 18.4792 9.04387 18.4636C8.82296 18.448 8.71571 18.4214 8.64512 18.3921C8.50598 18.3345 8.37955 18.25 8.27306 18.1436C8.16658 18.0371 8.08213 17.9106 8.02454 17.7715C7.98787 17.6835 7.95762 17.5451 7.94571 17.2178C7.91821 16.4918 7.54329 15.7924 6.87779 15.4083C6.21229 15.0242 5.41937 15.049 4.77679 15.3882C4.48712 15.5412 4.35237 15.5843 4.25704 15.5962C3.95586 15.636 3.65119 15.5546 3.41004 15.3698C3.34954 15.3231 3.27254 15.2433 3.14879 15.06C2.97635 14.7916 2.81219 14.518 2.65654 14.2396C2.43837 13.8619 2.29262 13.6071 2.19271 13.4036C2.09462 13.2047 2.06437 13.0983 2.05521 13.0222C2.01541 12.7211 2.09685 12.4164 2.28162 12.1752C2.34029 12.0992 2.44479 12.0038 2.72162 11.8297C3.33762 11.4428 3.75562 10.7682 3.75562 10C3.75562 9.23183 3.33762 8.55717 2.72162 8.17033C2.44479 7.99616 2.34029 7.90083 2.28162 7.82475C2.09685 7.58359 2.01541 7.27893 2.05521 6.97775C2.06437 6.90167 2.09554 6.79441 2.19271 6.59642C2.29262 6.392 2.43837 6.13808 2.65654 5.76042C2.87471 5.38275 3.02229 5.12883 3.14879 4.94C3.27254 4.75667 3.34954 4.67692 3.41004 4.63017C3.65119 4.44539 3.95586 4.36395 4.25704 4.40375C4.35237 4.41567 4.48621 4.45875 4.77679 4.61183C5.41846 4.951 6.21229 4.97667 6.87779 4.59167C7.54329 4.20758 7.91821 3.50817 7.94571 2.78217C7.95762 2.45492 7.98787 2.3165 8.02454 2.2285C8.14096 1.94708 8.36371 1.72433 8.64512 1.60792Z" fill="#6DA0E1"/>
</svg>
