<svg width="32" height="30" viewBox="0 0 32 30" fill="none" xmlns="http://www.w3.org/2000/svg">
<path d="M15.1156 0.676336C15.4908 -0.0348104 16.5092 -0.0348077 16.8844 0.676339L20.9666 8.4134C21.1113 8.68765 21.375 8.87926 21.6805 8.93212L30.3004 10.4236C31.0926 10.5607 31.4074 11.5293 30.847 12.1059L24.75 18.3791C24.5339 18.6015 24.4332 18.9115 24.4773 19.2184L25.7226 27.8772C25.837 28.6731 25.013 29.2718 24.2915 28.917L16.4412 25.057C16.163 24.9201 15.837 24.9201 15.5588 25.057L7.70851 28.917C6.98696 29.2718 6.16299 28.6731 6.27744 27.8772L7.52267 19.2184C7.56681 18.9115 7.46607 18.6015 7.24996 18.3791L1.15302 12.1059C0.592626 11.5293 0.907356 10.5607 1.69964 10.4236L10.3195 8.93212C10.625 8.87926 10.8887 8.68765 11.0334 8.4134L15.1156 0.676336Z" fill="#AED2FF" fill-opacity="0.3"/>
</svg>
