<svg width="20" height="20" viewBox="0 0 20 20" fill="none" xmlns="http://www.w3.org/2000/svg">
<path d="M5.32951 5.66667H14.6628M9.99618 5.66667V9.66667M9.99618 16.3333V12.3333M7.32951 9C6.31275 9.19812 5.51811 9.50394 5.06882 9.87002C4.61953 10.2361 4.54071 10.642 4.84457 11.0247C5.14844 11.4075 5.81801 11.7457 6.74945 11.9869C7.68088 12.2281 8.82213 12.3588 9.99618 12.3588C11.1702 12.3588 12.3115 12.2281 13.2429 11.9869C14.1743 11.7457 14.8439 11.4075 15.1478 11.0247C15.4516 10.642 15.3728 10.2361 14.9235 9.87002C14.4742 9.50394 13.6796 9.19812 12.6628 9" stroke="#6DA0E1" stroke-width="1.2" stroke-linecap="round" stroke-linejoin="round"/>
<circle cx="9.996" cy="10.2" r="9.1" stroke="#6DA0E1"/>
</svg>
