<svg width="36" height="36" viewBox="0 0 36 36" fill="none" xmlns="http://www.w3.org/2000/svg">
<circle cx="18.05" cy="18.05" r="15.75" fill="#6DA0E1" fill-opacity="0.2"/>
<path d="M18 18C20.4853 18 22.5 15.9853 22.5 13.5C22.5 11.0147 20.4853 9 18 9C15.5147 9 13.5 11.0147 13.5 13.5C13.5 15.9853 15.5147 18 18 18Z" stroke="#AED2FF" stroke-width="1.7"/>
<path d="M18 33C26.2843 33 33 26.2843 33 18C33 9.71573 26.2843 3 18 3C9.71573 3 3 9.71573 3 18C3 26.2843 9.71573 33 18 33Z" stroke="#AED2FF" stroke-width="1.7"/>
<path d="M26.9549 30C26.7149 25.662 25.3874 22.5 17.9999 22.5C10.6124 22.5 9.28492 25.662 9.04492 30" stroke="#AED2FF" stroke-width="1.7" stroke-linecap="round"/>
</svg>
