<svg width="19" height="16" viewBox="0 0 19 16" fill="none" xmlns="http://www.w3.org/2000/svg">
<path d="M17.3376 3.83333H18.1709V12.1667H17.3376V14.6667C17.3376 14.8877 17.2498 15.0996 17.0935 15.2559C16.9372 15.4122 16.7252 15.5 16.5042 15.5H1.50423C1.28322 15.5 1.07126 15.4122 0.914976 15.2559C0.758696 15.0996 0.670898 14.8877 0.670898 14.6667V1.33333C0.670898 1.11232 0.758696 0.900358 0.914976 0.744078C1.07126 0.587797 1.28322 0.5 1.50423 0.5H16.5042C16.7252 0.5 16.9372 0.587797 17.0935 0.744078C17.2498 0.900358 17.3376 1.11232 17.3376 1.33333V3.83333ZM15.6709 12.1667H10.6709C9.56583 12.1667 8.50602 11.7277 7.72462 10.9463C6.94322 10.1649 6.50423 9.10507 6.50423 8C6.50423 6.89493 6.94322 5.83512 7.72462 5.05372C8.50602 4.27232 9.56583 3.83333 10.6709 3.83333H15.6709V2.16667H2.33757V13.8333H15.6709V12.1667ZM16.5042 10.5V5.5H10.6709C10.0079 5.5 9.37197 5.76339 8.90313 6.23223C8.43429 6.70107 8.1709 7.33696 8.1709 8C8.1709 8.66304 8.43429 9.29893 8.90313 9.76777C9.37197 10.2366 10.0079 10.5 10.6709 10.5H16.5042ZM10.6709 7.16667H13.1709V8.83333H10.6709V7.16667Z" fill="#6DA0E1"/>
</svg>
