<svg width="10" height="11" viewBox="0 0 10 11" fill="none" xmlns="http://www.w3.org/2000/svg">
<path d="M2.66659 3.33325H7.33325M4.99992 3.33325V5.33325M4.99992 8.66659V6.66659M3.66659 4.99992C3.15821 5.09898 2.76089 5.25189 2.53624 5.43493C2.3116 5.61797 2.27218 5.82091 2.42412 6.01228C2.57605 6.20365 2.91084 6.37275 3.37656 6.49336C3.84227 6.61397 4.41289 6.67934 4.99992 6.67934C5.58694 6.67934 6.15756 6.61397 6.62328 6.49336C7.089 6.37275 7.42379 6.20365 7.57572 6.01228C7.72765 5.82091 7.68824 5.61797 7.4636 5.43493C7.23895 5.25189 6.84163 5.09898 6.33325 4.99992" stroke="#AED2FF" stroke-width="0.6" stroke-linecap="round" stroke-linejoin="round"/>
<circle cx="4.99995" cy="5.60005" r="4.5" stroke="#AED2FF" stroke-width="0.6"/>
</svg>
